<svg id="Layer_1" data-name="Layer 1" xmlns="http://www.w3.org/2000/svg" viewBox="0 0 40 40"><defs><style>.cls-1,.cls-4{fill:#fff;}.cls-2{fill:#231f20;}.cls-3,.cls-5,.cls-6{fill:none;}.cls-3,.cls-4{stroke:#231f20;}.cls-3,.cls-4,.cls-5,.cls-6{stroke-miterlimit:10;}.cls-3,.cls-6{stroke-width:0.75px;}.cls-4{stroke-width:6px;}.cls-5,.cls-6{stroke:#fff;}.cls-5{stroke-width:4px;}</style></defs><title>JSD</title><path class="cls-1" d="M3.17,36.85V19.1H29.11a7.67,7.67,0,0,1,7.66,7.66v2.43a7.67,7.67,0,0,1-7.66,7.66Z"/><path class="cls-2" d="M29.11,22.35a4.41,4.41,0,0,1,4.41,4.41v2.43a4.41,4.41,0,0,1-4.41,4.41H6.43V22.35H29.11m0-6.5H-.07V40.1H29.11A10.91,10.91,0,0,0,40,29.19V26.75A10.91,10.91,0,0,0,29.11,15.85Z"/><rect class="cls-2" x="0.54" y="0.5" width="39.08" height="14.9"/><path class="cls-2" d="M39.12,1V14.9H1V1H39.12m1-1H0V15.9H40.12V0Z"/><line class="cls-3" x1="11.52" y1="33.58" x2="11.52" y2="11.61"/><line class="cls-4" x1="3.59" y1="18.29" x2="3.59" y2="35.51"/><line class="cls-4" x1="8.43" y1="18.29" x2="8.43" y2="35.51"/><path class="cls-5" d="M12.07,13.61H34.5a3,3,0,0,0,3.22-2.81v-.23A3,3,0,0,0,34.5,7.78H17.56A3,3,0,0,1,14.34,5V4.8A3,3,0,0,1,17.56,2H40"/><path class="cls-5" d="M8.76,0V10.81a3,3,0,0,1-3.22,2.81H0"/><line class="cls-6" x1="12.09" y1="33.58" x2="12.09" y2="11.61"/></svg>